<svg width="171" height="52" viewBox="0 0 171 52" fill="none" xmlns="http://www.w3.org/2000/svg">
<path d="M1.07418e-05 2.1827C0.0142242 2.74842 0.247917 3.28616 0.651222 3.68116C1.05453 4.07617 1.5955 4.29716 2.15871 4.29698C2.72582 4.29698 3.26969 4.07062 3.6707 3.6677C4.0717 3.26478 4.29698 2.7183 4.29698 2.14849C4.29698 1.57867 4.0717 1.0322 3.6707 0.629278C3.26969 0.226358 2.72582 0 2.15871 0C1.87433 0.000897135 1.59291 0.0580675 1.33052 0.168244C1.06813 0.278421 0.82991 0.439448 0.629456 0.642131C0.429001 0.844813 0.270242 1.08518 0.162242 1.34951C0.0542412 1.61385 -0.000884939 1.89696 1.07418e-05 2.1827Z" fill="url(#paint0_linear_6301_663)"/>
<path d="M23.7677 5.4351V6.80966H26.6862V9.73748H23.7677V19.4488H20.2513V9.75123H18.0923V6.82341H20.2443V5.38699C20.2443 2.53478 22.0869 0.679116 24.9492 0.679116C25.5394 0.665407 26.1275 0.753828 26.6862 0.940286V3.81999C26.3269 3.72305 25.9548 3.67904 25.5821 3.68941C25.3399 3.664 25.095 3.69146 24.8649 3.7698C24.6349 3.84814 24.4255 3.9754 24.2519 4.14241C24.0784 4.30943 23.9449 4.51202 23.8611 4.73556C23.7774 4.95911 23.7455 5.19804 23.7677 5.4351Z" fill="#212121"/>
<path d="M40.9303 13.0815C40.9153 14.3978 40.5112 15.6802 39.7689 16.7673C39.0267 17.8545 37.9794 18.6976 36.759 19.1907C35.5385 19.6837 34.1995 19.8046 32.9106 19.5382C31.6216 19.2717 30.4403 18.6297 29.5153 17.6931C28.5904 16.7566 27.9632 15.5672 27.7127 14.2749C27.4622 12.9825 27.5997 11.6449 28.1077 10.4305C28.6158 9.21615 29.4717 8.17924 30.5678 7.45037C31.6638 6.72151 32.951 6.33328 34.2672 6.33455C35.1546 6.31523 36.0365 6.47717 36.8592 6.81047C37.6818 7.14377 38.4278 7.64142 39.0515 8.27297C39.6752 8.90452 40.1635 9.6567 40.4865 10.4835C40.8096 11.3103 40.9606 12.1943 40.9303 13.0815ZM37.4743 13.0815C37.4743 10.6758 35.9261 9.45914 34.2465 9.45914C32.5669 9.45914 31.0118 10.6758 31.0118 13.0815C31.0118 15.4871 32.5669 16.6968 34.2465 16.6968C35.9261 16.6968 37.4951 15.5148 37.4951 13.0815H37.4743Z" fill="#212121"/>
<path d="M50.1928 10.2593C49.8392 10.1922 49.4795 10.1601 49.1192 10.1637C47.3298 10.1637 45.786 11.0035 45.786 13.7071V19.449H42.2773V6.89342H45.6597V8.75046C46.4456 7.09141 48.228 6.78418 49.3297 6.78418C49.6174 6.78418 49.8841 6.78418 50.1437 6.83197L50.1928 10.2593Z" fill="#212121"/>
<path d="M60.1326 18.1798C59.7395 18.7427 59.2098 19.1956 58.5936 19.4958C57.9775 19.7959 57.2953 19.9333 56.6115 19.895C53.5331 19.895 51.769 17.6381 51.769 14.8604V6.78418H55.2279V14.159C55.2279 15.5479 55.9197 16.7284 57.5592 16.7284C57.8853 16.7424 58.2106 16.6865 58.5135 16.5644C58.8164 16.4423 59.0898 16.2568 59.3157 16.0202C59.5415 15.7836 59.7145 15.5015 59.8232 15.1925C59.9318 14.8836 59.9736 14.5549 59.9458 14.2285V6.78418H63.4047V17.2492C63.406 18.0194 63.4475 18.7889 63.5292 19.5547H60.2364C60.1637 19.1001 60.129 18.6402 60.1326 18.1798Z" fill="#212121"/>
<path d="M65.5503 19.4432V6.70363H68.8451V8.25537C69.2554 7.65505 69.8088 7.16602 70.4553 6.83227C71.1019 6.49852 71.8214 6.33053 72.5491 6.3434C73.3188 6.28741 74.0881 6.45846 74.7614 6.83531C75.4347 7.21217 75.9823 7.77822 76.3363 8.4632C76.7542 7.77658 77.3514 7.21652 78.0638 6.84308C78.7762 6.46964 79.577 6.29691 80.3802 6.3434C82.7455 6.3434 84.9998 7.72889 84.9998 11.1926V19.4501H81.6565V11.8854C81.6565 10.4999 80.9628 9.4746 79.3952 9.4746C79.071 9.4718 78.7498 9.53618 78.4518 9.66368C78.1537 9.79118 77.8854 9.97902 77.6638 10.2153C77.4422 10.4517 77.272 10.7313 77.1641 11.0367C77.0562 11.342 77.0129 11.6664 77.0369 11.9893V19.4432H73.6173V11.8854C73.6173 10.4999 72.9236 9.4746 71.3629 9.4746C71.0361 9.46684 70.7113 9.52762 70.4095 9.65303C70.1077 9.77844 69.8355 9.96568 69.6107 10.2027C69.3858 10.4396 69.2132 10.7211 69.104 11.0288C68.9949 11.3366 68.9515 11.6638 68.9768 11.9893V19.4432H65.5503Z" fill="#212121"/>
<path d="M15.396 29.1751V45.9023H12.7006L4.81889 34.5085H4.68004V45.9023H1.64986V29.1751H4.36151L12.2351 40.5771H12.3821V29.1751H15.396ZM24.121 46.1474C22.8632 46.1474 21.7769 45.886 20.8621 45.3633C19.9528 44.8351 19.2531 44.0891 18.7631 43.1254C18.273 42.1561 18.028 41.0154 18.028 39.7031C18.028 38.4126 18.273 37.2801 18.7631 36.3054C19.2586 35.3253 19.9501 34.563 20.8376 34.0185C21.7252 33.4685 22.7679 33.1935 23.9658 33.1935C24.739 33.1935 25.4687 33.3188 26.1547 33.5692C26.8463 33.8143 27.4561 34.1954 27.9843 34.7127C28.5179 35.23 28.9372 35.8888 29.2421 36.6893C29.547 37.4843 29.6995 38.4317 29.6995 39.5316V40.4382H19.4165V38.4453H26.8653C26.8599 37.879 26.7374 37.3754 26.4978 36.9343C26.2582 36.4878 25.9233 36.1366 25.4932 35.8807C25.0684 35.6248 24.5729 35.4968 24.0067 35.4968C23.4023 35.4968 22.8714 35.6438 22.414 35.9379C21.9566 36.2264 21.5999 36.6076 21.344 37.0813C21.0935 37.5496 20.9656 38.0642 20.9601 38.625V40.3647C20.9601 41.0943 21.0935 41.7205 21.3604 42.2433C21.6272 42.7605 22.0001 43.158 22.4793 43.4357C22.9585 43.708 23.5193 43.8441 24.1618 43.8441C24.592 43.8441 24.9813 43.7842 25.3298 43.6644C25.6783 43.5392 25.9805 43.3568 26.2364 43.1172C26.4923 42.8776 26.6856 42.5808 26.8163 42.2269L29.577 42.5373C29.4027 43.2669 29.0706 43.904 28.5805 44.4485C28.0959 44.9876 27.4752 45.4068 26.7183 45.7063C25.9614 46.0004 25.0957 46.1474 24.121 46.1474ZM34.7226 45.9023L31.1778 33.3569H34.1917L36.3969 42.1779H36.5113L38.7655 33.3569H41.7467L44.001 42.1289H44.1235L46.2961 33.3569H49.3181L45.7652 45.9023H42.686L40.3337 37.4244H40.1622L37.8099 45.9023H34.7226ZM61.2979 36.6729L58.6026 36.967C58.5264 36.6947 58.393 36.4388 58.2024 36.1992C58.0173 35.9596 57.7668 35.7663 57.451 35.6193C57.1352 35.4723 56.7486 35.3988 56.2912 35.3988C55.6759 35.3988 55.1586 35.5322 54.7393 35.799C54.3255 36.0658 54.1213 36.4116 54.1268 36.8363C54.1213 37.2011 54.2547 37.4979 54.527 37.7266C54.8047 37.9553 55.2621 38.1431 55.8991 38.2901L58.0391 38.7475C59.2261 39.0034 60.1082 39.4091 60.6854 39.9645C61.268 40.5199 61.562 41.2468 61.5675 42.1452C61.562 42.9348 61.3306 43.6317 60.8732 44.2362C60.4213 44.8351 59.7924 45.3034 58.9865 45.641C58.1806 45.9786 57.255 46.1474 56.2095 46.1474C54.674 46.1474 53.438 45.8261 52.5014 45.1836C51.5649 44.5356 51.0067 43.6345 50.8271 42.4801L53.7102 42.2024C53.8409 42.7687 54.1186 43.1961 54.5433 43.4847C54.968 43.7733 55.5207 43.9176 56.2013 43.9176C56.9038 43.9176 57.4673 43.7733 57.892 43.4847C58.3222 43.1961 58.5373 42.8395 58.5373 42.4148C58.5373 42.0554 58.3984 41.7586 58.1207 41.5245C57.8485 41.2904 57.4238 41.1107 56.8466 40.9854L54.7067 40.5362C53.5033 40.2857 52.613 39.8638 52.0359 39.2702C51.4587 38.6713 51.1728 37.9144 51.1783 36.9996C51.1728 36.2264 51.3825 35.5567 51.8072 34.9904C52.2373 34.4187 52.8336 33.9776 53.5959 33.6673C54.3636 33.3514 55.2485 33.1935 56.2504 33.1935C57.7205 33.1935 58.8776 33.5066 59.7216 34.1328C60.571 34.759 61.0965 35.6057 61.2979 36.6729ZM66.9622 29.1751V45.9023H64.0055V29.1751H66.9622ZM75.5566 46.1474C74.2987 46.1474 73.2124 45.886 72.2977 45.3633C71.3883 44.8351 70.6887 44.0891 70.1986 43.1254C69.7085 42.1561 69.4635 41.0154 69.4635 39.7031C69.4635 38.4126 69.7085 37.2801 70.1986 36.3054C70.6941 35.3253 71.3856 34.563 72.2732 34.0185C73.1607 33.4685 74.2035 33.1935 75.4014 33.1935C76.1746 33.1935 76.9042 33.3188 77.5903 33.5692C78.2818 33.8143 78.8917 34.1954 79.4198 34.7127C79.9535 35.23 80.3727 35.8888 80.6776 36.6893C80.9826 37.4843 81.135 38.4317 81.135 39.5316V40.4382H70.852V38.4453H78.3009C78.2954 37.879 78.1729 37.3754 77.9333 36.9343C77.6937 36.4878 77.3589 36.1366 76.9287 35.8807C76.504 35.6248 76.0085 35.4968 75.4422 35.4968C74.8378 35.4968 74.3069 35.6438 73.8495 35.9379C73.3921 36.2264 73.0355 36.6076 72.7796 37.0813C72.5291 37.5496 72.4011 38.0642 72.3957 38.625V40.3647C72.3957 41.0943 72.5291 41.7205 72.7959 42.2433C73.0627 42.7605 73.4357 43.158 73.9149 43.4357C74.394 43.708 74.9549 43.8441 75.5974 43.8441C76.0276 43.8441 76.4169 43.7842 76.7654 43.6644C77.1138 43.5392 77.416 43.3568 77.672 43.1172C77.9279 42.8776 78.1212 42.5808 78.2519 42.2269L81.0125 42.5373C80.8383 43.2669 80.5061 43.904 80.0161 44.4485C79.5315 44.9876 78.9107 45.4068 78.1539 45.7063C77.397 46.0004 76.5312 46.1474 75.5566 46.1474ZM89.9009 33.3569V35.6438H82.6889V33.3569H89.9009ZM84.4695 30.3512H87.4261V42.1289C87.4261 42.5264 87.486 42.8313 87.6058 43.0437C87.7311 43.2506 87.8944 43.3922 88.0959 43.4684C88.2973 43.5446 88.5206 43.5827 88.7656 43.5827C88.9508 43.5827 89.1196 43.5691 89.272 43.5419C89.4299 43.5147 89.5497 43.4902 89.6314 43.4684L90.1296 45.7798C89.9717 45.8343 89.7457 45.8942 89.4517 45.9595C89.1631 46.0249 88.8092 46.063 88.3899 46.0739C87.6494 46.0956 86.9824 45.984 86.3888 45.739C85.7953 45.4885 85.3243 45.1019 84.9759 44.5792C84.6328 44.0565 84.464 43.4031 84.4695 42.619V30.3512ZM98.6382 33.3569V35.6438H91.4262V33.3569H98.6382ZM93.2068 30.3512H96.1634V42.1289C96.1634 42.5264 96.2233 42.8313 96.3431 43.0437C96.4684 43.2506 96.6317 43.3922 96.8332 43.4684C97.0347 43.5446 97.2579 43.5827 97.5029 43.5827C97.6881 43.5827 97.8569 43.5691 98.0093 43.5419C98.1672 43.5147 98.287 43.4902 98.3687 43.4684L98.8669 45.7798C98.709 45.8343 98.483 45.8942 98.189 45.9595C97.9004 46.0249 97.5465 46.063 97.1272 46.0739C96.3867 46.0956 95.7197 45.984 95.1262 45.739C94.5326 45.4885 94.0616 45.1019 93.7132 44.5792C93.3701 44.0565 93.2013 43.4031 93.2068 42.619V30.3512ZM106.53 46.1474C105.272 46.1474 104.186 45.886 103.271 45.3633C102.362 44.8351 101.662 44.0891 101.172 43.1254C100.682 42.1561 100.437 41.0154 100.437 39.7031C100.437 38.4126 100.682 37.2801 101.172 36.3054C101.668 35.3253 102.359 34.563 103.247 34.0185C104.134 33.4685 105.177 33.1935 106.375 33.1935C107.148 33.1935 107.878 33.3188 108.564 33.5692C109.255 33.8143 109.865 34.1954 110.393 34.7127C110.927 35.23 111.346 35.8888 111.651 36.6893C111.956 37.4843 112.109 38.4317 112.109 39.5316V40.4382H101.826V38.4453H109.275C109.269 37.879 109.147 37.3754 108.907 36.9343C108.667 36.4878 108.333 36.1366 107.902 35.8807C107.478 35.6248 106.982 35.4968 106.416 35.4968C105.811 35.4968 105.281 35.6438 104.823 35.9379C104.366 36.2264 104.009 36.6076 103.753 37.0813C103.503 37.5496 103.375 38.0642 103.369 38.625V40.3647C103.369 41.0943 103.503 41.7205 103.77 42.2433C104.036 42.7605 104.409 43.158 104.888 43.4357C105.368 43.708 105.929 43.8441 106.571 43.8441C107.001 43.8441 107.391 43.7842 107.739 43.6644C108.087 43.5392 108.39 43.3568 108.646 43.1172C108.902 42.8776 109.095 42.5808 109.225 42.2269L111.986 42.5373C111.812 43.2669 111.48 43.904 110.99 44.4485C110.505 44.9876 109.884 45.4068 109.127 45.7063C108.371 46.0004 107.505 46.1474 106.53 46.1474ZM114.61 45.9023V33.3569H117.477V35.4478H117.608C117.836 34.7236 118.228 34.1655 118.784 33.7734C119.344 33.3759 119.984 33.1772 120.703 33.1772C120.866 33.1772 121.049 33.1854 121.25 33.2017C121.457 33.2126 121.629 33.2317 121.765 33.2589V35.9787C121.64 35.9351 121.441 35.897 121.169 35.8643C120.902 35.8262 120.643 35.8072 120.393 35.8072C119.854 35.8072 119.369 35.9242 118.939 36.1584C118.514 36.3871 118.179 36.7056 117.934 37.114C117.689 37.5224 117.567 37.9934 117.567 38.527V45.9023H114.61Z" fill="#212121"/>
<defs>
<linearGradient id="paint0_linear_6301_663" x1="0.169482" y1="0.831896" x2="3.49705" y2="4.8333" gradientUnits="userSpaceOnUse">
<stop stop-color="#BED63A"/>
<stop offset="0.42" stop-color="#00B159"/>
<stop offset="1" stop-color="#00B159"/>
</linearGradient>
</defs>
</svg>
