<svg width="19" height="23" viewBox="0 0 19 23" fill="none" xmlns="http://www.w3.org/2000/svg">
<path d="M7.84038 20.5409C6.72033 20.5409 6.10184 20.1901 6.10184 19.7401C6.10184 19.2902 6.68115 18.9394 7.80002 18.9394C8.63991 18.9394 9.53976 19.2718 10.0989 19.7603C9.51958 20.3266 8.54019 20.5415 7.84038 20.5415M3.00759 8.59005C3.00759 5.47325 5.60384 2.93755 8.79483 2.93755C11.9858 2.93755 14.5821 5.47325 14.5821 8.59005C14.5821 11.7069 11.9858 14.2426 8.79483 14.2426C5.60384 14.2426 3.00759 11.7069 3.00759 8.59005ZM13.2383 19.0961L10.5987 17.2804C10.4764 17.2044 10.3417 17.1344 10.2016 17.0679C14.3844 16.4079 17.5891 12.8584 17.5891 8.58946C17.5891 3.85282 13.6437 0 8.79424 0C3.94482 0 0 3.85342 0 8.59005C0 12.38 2.52739 15.6024 6.0217 16.7397C4.32411 17.1653 3.30259 18.2456 3.30259 19.7401C3.30259 21.5173 5.0815 22.962 7.90093 22.962C9.53976 22.962 11.1388 22.3566 12.1776 21.4775C13.5772 22.4735 14.9768 23 16.2761 23C16.9154 23 17.5351 22.8837 18.0942 22.629V20.0328C17.5351 20.3254 17.0151 20.4631 16.4963 20.4631C15.4766 20.4631 14.477 19.955 13.2383 19.0961Z" fill="#D1F95C"/>
</svg>
